<mxfile host="Electron" modified="2023-10-10T16:20:30.125Z" agent="Mozilla/5.0 (Windows NT 10.0; Win64; x64) AppleWebKit/537.36 (KHTML, like Gecko) draw.io/22.0.2 Chrome/114.0.5735.289 Electron/25.8.4 Safari/537.36" etag="IRyejWAv2qLe3hu4MgvE" version="22.0.2" type="device">
  <diagram name="Page-1" id="3gxddhXzKKZRk-OIyxOT">
    <mxGraphModel dx="712" dy="820" grid="1" gridSize="10" guides="1" tooltips="1" connect="1" arrows="1" fold="1" page="1" pageScale="1" pageWidth="850" pageHeight="1100" math="0" shadow="0">
      <root>
        <mxCell id="0" />
        <mxCell id="1" parent="0" />
        <mxCell id="OSn7Ex0KW1HROBWdStls-2" value="Login Interaction Diagram" style="rounded=1;whiteSpace=wrap;html=1;" parent="1" vertex="1">
          <mxGeometry x="530" y="30" width="260" height="60" as="geometry" />
        </mxCell>
        <mxCell id="OSn7Ex0KW1HROBWdStls-3" value="&lt;font style=&quot;font-size: 14px;&quot;&gt;1. User inputs desired account info to user interaction&lt;br&gt;2. Accouint info is sent to account creation&lt;br&gt;3. Successful account creation message is sent back to user interaction&lt;br&gt;4. User interaction displays the application to user&lt;br&gt;&lt;/font&gt;" style="rounded=1;whiteSpace=wrap;html=1;align=left;" parent="1" vertex="1">
          <mxGeometry x="60" y="380" width="650" height="120" as="geometry" />
        </mxCell>
        <mxCell id="OSn7Ex0KW1HROBWdStls-4" value="&lt;b&gt;User&lt;/b&gt;: The User&lt;br&gt;&lt;b&gt;User Interaction&lt;/b&gt;: User input&lt;br&gt;&lt;b&gt;Account Creation&lt;/b&gt;: Creates account using input login info" style="rounded=1;whiteSpace=wrap;html=1;align=left;" parent="1" vertex="1">
          <mxGeometry x="60" y="290" width="310" height="80" as="geometry" />
        </mxCell>
        <mxCell id="OSn7Ex0KW1HROBWdStls-5" value="User" style="shape=umlActor;verticalLabelPosition=bottom;verticalAlign=top;html=1;outlineConnect=0;" parent="1" vertex="1">
          <mxGeometry x="130" y="150" width="30" height="60" as="geometry" />
        </mxCell>
        <mxCell id="OSn7Ex0KW1HROBWdStls-6" value="&amp;lt;&amp;lt;user interaction&amp;gt;&amp;gt;&lt;br&gt;User Interaction" style="whiteSpace=wrap;html=1;aspect=fixed;rounded=1;" parent="1" vertex="1">
          <mxGeometry x="320" y="150" width="80" height="80" as="geometry" />
        </mxCell>
        <mxCell id="OSn7Ex0KW1HROBWdStls-7" style="edgeStyle=orthogonalEdgeStyle;rounded=0;orthogonalLoop=1;jettySize=auto;html=1;entryX=0.01;entryY=0.383;entryDx=0;entryDy=0;entryPerimeter=0;endArrow=none;endFill=0;" parent="1" source="OSn7Ex0KW1HROBWdStls-5" target="OSn7Ex0KW1HROBWdStls-6" edge="1">
          <mxGeometry relative="1" as="geometry" />
        </mxCell>
        <mxCell id="OSn7Ex0KW1HROBWdStls-8" value="" style="endArrow=blockThin;html=1;rounded=0;strokeWidth=3;endFill=1;" parent="1" edge="1">
          <mxGeometry width="50" height="50" relative="1" as="geometry">
            <mxPoint x="190" y="160" as="sourcePoint" />
            <mxPoint x="290" y="160" as="targetPoint" />
            <Array as="points" />
          </mxGeometry>
        </mxCell>
        <mxCell id="OSn7Ex0KW1HROBWdStls-10" value="" style="endArrow=blockThin;html=1;rounded=0;strokeWidth=3;endFill=1;" parent="1" edge="1">
          <mxGeometry width="50" height="50" relative="1" as="geometry">
            <mxPoint x="290" y="210" as="sourcePoint" />
            <mxPoint x="200" y="210" as="targetPoint" />
            <Array as="points" />
          </mxGeometry>
        </mxCell>
        <mxCell id="OSn7Ex0KW1HROBWdStls-12" value="" style="endArrow=blockThin;html=1;rounded=0;strokeWidth=3;endFill=1;" parent="1" edge="1">
          <mxGeometry width="50" height="50" relative="1" as="geometry">
            <mxPoint x="515" y="210" as="sourcePoint" />
            <mxPoint x="425" y="210" as="targetPoint" />
            <Array as="points" />
          </mxGeometry>
        </mxCell>
        <mxCell id="OSn7Ex0KW1HROBWdStls-13" value="" style="endArrow=blockThin;html=1;rounded=0;strokeWidth=3;endFill=1;" parent="1" edge="1">
          <mxGeometry width="50" height="50" relative="1" as="geometry">
            <mxPoint x="425" y="170" as="sourcePoint" />
            <mxPoint x="525" y="170" as="targetPoint" />
            <Array as="points" />
          </mxGeometry>
        </mxCell>
        <mxCell id="OSn7Ex0KW1HROBWdStls-14" value="1. Account Info" style="text;html=1;align=center;verticalAlign=middle;resizable=0;points=[];autosize=1;strokeColor=default;fillColor=none;rounded=1;" parent="1" vertex="1">
          <mxGeometry x="195" y="110" width="100" height="30" as="geometry" />
        </mxCell>
        <mxCell id="OSn7Ex0KW1HROBWdStls-16" value="2. Account Info" style="text;html=1;align=center;verticalAlign=middle;resizable=0;points=[];autosize=1;strokeColor=default;fillColor=none;rounded=1;" parent="1" vertex="1">
          <mxGeometry x="420" y="110" width="100" height="30" as="geometry" />
        </mxCell>
        <mxCell id="OSn7Ex0KW1HROBWdStls-17" value="3. Successful Account" style="text;html=1;align=center;verticalAlign=middle;resizable=0;points=[];autosize=1;strokeColor=default;fillColor=none;rounded=1;" parent="1" vertex="1">
          <mxGeometry x="400" y="230" width="140" height="30" as="geometry" />
        </mxCell>
        <mxCell id="OSn7Ex0KW1HROBWdStls-18" value="4. Allow Access" style="text;html=1;align=center;verticalAlign=middle;resizable=0;points=[];autosize=1;strokeColor=default;fillColor=none;rounded=1;" parent="1" vertex="1">
          <mxGeometry x="190" y="230" width="110" height="30" as="geometry" />
        </mxCell>
        <mxCell id="WTKJXa7nuym5UCZbOK89-1" value="&amp;lt;&amp;lt;entity&amp;gt;&amp;gt;&lt;br&gt;Account Creation" style="whiteSpace=wrap;html=1;aspect=fixed;rounded=1;" parent="1" vertex="1">
          <mxGeometry x="540" y="150" width="80" height="80" as="geometry" />
        </mxCell>
        <mxCell id="SWd8aGWO_ufwfc-RIp2Q-1" value="BEANSTALK&lt;br&gt;Cal Crosby, Ashton Stroud, Sarah Hardin, Jon Story" style="text;html=1;align=center;verticalAlign=middle;resizable=0;points=[];autosize=1;strokeColor=none;fillColor=none;" vertex="1" parent="1">
          <mxGeometry x="110" y="20" width="300" height="40" as="geometry" />
        </mxCell>
      </root>
    </mxGraphModel>
  </diagram>
</mxfile>
